<?xml version="1.0" encoding="UTF-8"?>
<svg width="133px" height="32px" viewBox="0 0 133 32" version="1.1" xmlns="http://www.w3.org/2000/svg" xmlns:xlink="http://www.w3.org/1999/xlink">
    <!-- Generator: Sketch 50.2 (55047) - http://www.bohemiancoding.com/sketch -->
    <title>Group 25</title>
    <desc>Created with Sketch.</desc>
    <defs></defs>
    <g id="🖥-home-blog" stroke="none" stroke-width="1" fill="none" fill-rule="evenodd">
        <g id="Group-25" fill="#297EF1">
            <path d="M30.7222256,32 L11.064716,32 C4.96223589,32 0,27.0048576 0,20.8644874 C0,17.9363004 1.12018128,15.170277 3.15573458,13.0772746 C4.93882911,11.2455823 7.24857604,10.1053958 9.74724906,9.80879608 C10.0423416,7.29400027 11.1742263,4.96909545 12.9957748,3.17521334 C15.0756338,1.12590258 17.8234217,0 20.7333852,0 C23.6425127,0 26.3911366,1.12590258 28.4709956,3.17437311 C30.2850205,4.96069319 31.4135613,7.27299462 31.7161775,9.77434689 C37.35303,10.2826834 41.7869416,15.0627281 41.7869416,20.8653275 C41.7869416,27.0048576 36.8213619,32 30.7213896,32 L30.7222256,32 Z M30.7599757,29.912188 L30.8446122,29.912188 C35.726448,29.912188 39.6975945,25.8932825 39.6975945,20.9530572 C39.6975945,16.0136872 35.726448,11.9947817 30.8446122,11.9947817 L30.7557438,11.9947817 C30.1184307,11.9947817 29.5962232,11.4815116 29.581835,10.8347911 C29.4718075,6.01005154 25.5023537,2.08695652 20.7322382,2.08695652 C15.9621227,2.08695652 11.9909761,6.01176243 11.881795,10.8365021 C11.8674068,11.4712461 11.3621266,11.9828054 10.7341235,11.9973481 C5.96739343,12.1085566 2.08934708,16.1257512 2.08934708,20.9539126 C2.08934708,25.894138 6.06049363,29.9130435 10.9423294,29.9130435 L11.0142704,29.9130435 L11.0422005,29.9113325 C11.0675915,29.9113325 11.0929824,29.9113325 11.1183734,29.9130435 L30.7574366,29.9130435 L30.7599757,29.912188 Z M26.4078557,20.197348 L26.4078557,20.1956676 C26.5976178,20.320021 26.651119,20.5771301 26.5273975,20.7687016 C26.4479816,20.8896941 26.3167365,20.9569122 26.1829835,20.9569122 C26.1060756,20.9569122 26.0274957,20.9350663 25.9589473,20.8896941 C25.7742009,20.7687016 25.6220569,20.6309046 25.4949916,20.4863858 C24.1098122,21.7442038 22.358484,22.3726927 20.6071558,22.3726927 C18.8600074,22.3726927 17.112859,21.7467244 15.7301874,20.494788 C15.6039581,20.6376263 15.4534859,20.7720625 15.2737554,20.8896941 C15.204371,20.9350663 15.1266271,20.9569122 15.0497191,20.9569122 C14.9142942,20.9569122 14.783885,20.8905343 14.7053052,20.7695419 C14.5807477,20.5788106 14.6342489,20.3225417 14.8248469,20.1965078 C15.5245422,19.7385847 15.5579805,18.8941578 15.5579805,18.8605488 C15.5655041,18.6336878 15.7552661,18.4505186 15.9784664,18.4572404 C16.2041746,18.463122 16.3839052,18.6504923 16.3797254,18.8773533 C16.3797254,18.9076014 16.3671861,19.3092294 16.1749161,19.7814363 C18.6643936,22.1365892 22.568309,22.1332283 25.0527708,19.7671524 C24.8655166,19.3016673 24.8538132,18.9067612 24.8521413,18.8765131 C24.8479615,18.6496521 25.028528,18.4606013 25.2559081,18.4564002 C25.4832882,18.4530392 25.6688705,18.6328476 25.6738862,18.861389 C25.6755581,18.8983589 25.7098323,19.739425 26.4078557,20.197348 Z" id="cozy-black-white-copy"></path>
            <path d="M58.37,6.67 C58.3166664,6.7433337 58.2633336,6.7999998 58.21,6.84 C58.1566664,6.8800002 58.0800005,6.9 57.98,6.9 C57.8799995,6.9 57.7716673,6.85833375 57.655,6.775 C57.5383328,6.69166625 57.3900009,6.6000005 57.21,6.5 C57.0299991,6.3999995 56.8116679,6.30833375 56.555,6.225 C56.298332,6.14166625 55.9833352,6.1 55.61,6.1 C55.1166642,6.1 54.6800019,6.18833245 54.3,6.365 C53.9199981,6.54166755 53.601668,6.796665 53.345,7.13 C53.088332,7.463335 52.8950006,7.8666643 52.765,8.34 C52.6349994,8.8133357 52.57,9.3433304 52.57,9.93 C52.57,10.5433364 52.6399993,11.0883309 52.78,11.565 C52.9200007,12.0416691 53.1166654,12.4416651 53.37,12.765 C53.6233346,13.0883349 53.9316649,13.3349991 54.295,13.505 C54.6583352,13.6750008 55.0666644,13.76 55.52,13.76 C55.9533355,13.76 56.3099986,13.7083339 56.59,13.605 C56.8700014,13.5016661 57.1033324,13.3866673 57.29,13.26 C57.4766676,13.1333327 57.6299994,13.0183339 57.75,12.915 C57.8700006,12.8116661 57.9899994,12.76 58.11,12.76 C58.2633341,12.76 58.3766663,12.8166661 58.45,12.93 L58.95,13.58 C58.5099978,14.1200027 57.9600033,14.5149987 57.3,14.765 C56.6399967,15.0150012 55.943337,15.14 55.21,15.14 C54.5766635,15.14 53.9883361,15.0233345 53.445,14.79 C52.901664,14.5566655 52.430002,14.2183356 52.03,13.775 C51.629998,13.3316645 51.3150011,12.7866699 51.085,12.14 C50.8549988,11.4933301 50.74,10.7566708 50.74,9.93 C50.74,9.1766629 50.8449989,8.4800032 51.055,7.84 C51.265001,7.1999968 51.5716647,6.64833565 51.975,6.185 C52.3783354,5.72166435 52.8766637,5.3600013 53.47,5.1 C54.0633363,4.8399987 54.7433295,4.71 55.51,4.71 C56.2166702,4.71 56.8433306,4.82499885 57.39,5.055 C57.9366694,5.28500115 58.4199979,5.6099979 58.84,6.03 L58.37,6.67 Z M64.0714286,4.71 C64.8114323,4.71 65.4797589,4.8333321 66.0764286,5.08 C66.6730983,5.3266679 67.1797598,5.6766644 67.5964286,6.13 C68.0130973,6.5833356 68.3330942,7.13166345 68.5564286,7.775 C68.779763,8.41833655 68.8914286,9.1366627 68.8914286,9.93 C68.8914286,10.730004 68.779763,11.4499968 68.5564286,12.09 C68.3330942,12.7300032 68.0130973,13.2766644 67.5964286,13.73 C67.1797598,14.1833356 66.6730983,14.5316655 66.0764286,14.775 C65.4797589,15.0183345 64.8114323,15.14 64.0714286,15.14 C63.3314249,15.14 62.6630983,15.0183345 62.0664286,14.775 C61.4697589,14.5316655 60.9614307,14.1833356 60.5414286,13.73 C60.1214265,13.2766644 59.7980964,12.7300032 59.5714286,12.09 C59.3447608,11.4499968 59.2314286,10.730004 59.2314286,9.93 C59.2314286,9.1366627 59.3447608,8.41833655 59.5714286,7.775 C59.7980964,7.13166345 60.1214265,6.5833356 60.5414286,6.13 C60.9614307,5.6766644 61.4697589,5.3266679 62.0664286,5.08 C62.6630983,4.8333321 63.3314249,4.71 64.0714286,4.71 Z M64.0714286,13.75 C65.0714336,13.75 65.8180928,13.4150034 66.3114286,12.745 C66.8047644,12.0749966 67.0514286,11.140006 67.0514286,9.94 C67.0514286,8.7333273 66.8047644,7.7933367 66.3114286,7.12 C65.8180928,6.4466633 65.0714336,6.11 64.0714286,6.11 C63.5647594,6.11 63.1247638,6.1966658 62.7514286,6.37 C62.3780934,6.5433342 62.0664299,6.7933317 61.8164286,7.12 C61.5664273,7.4466683 61.3797625,7.84833095 61.2564286,8.325 C61.1330946,8.80166905 61.0714286,9.339997 61.0714286,9.94 C61.0714286,10.540003 61.1330946,11.0766643 61.2564286,11.55 C61.3797625,12.0233357 61.5664273,12.4216651 61.8164286,12.745 C62.0664299,13.068335 62.3780934,13.3166658 62.7514286,13.49 C63.1247638,13.6633342 63.5647594,13.75 64.0714286,13.75 Z M77.3328572,5.63 C77.3328572,5.7566673 77.3095241,5.87833275 77.2628572,5.995 C77.2161903,6.11166725 77.1561909,6.2166662 77.0828572,6.31 L71.6028572,13.61 L77.1328572,13.61 L77.1328572,15 L69.5028572,15 L69.5028572,14.26 C69.5028572,14.1733329 69.5245236,14.0716672 69.5678572,13.955 C69.6111908,13.8383328 69.6728568,13.7266672 69.7528572,13.62 L75.2628572,6.27 L69.8128572,6.27 L69.8128572,4.87 L77.3328572,4.87 L77.3328572,5.63 Z M81.6442858,17.99 C81.5842855,18.123334 81.5092863,18.2299996 81.4192858,18.31 C81.3292853,18.3900004 81.1909534,18.43 81.0042858,18.43 L79.6842858,18.43 L81.5342858,14.41 L77.3542858,4.87 L78.8942858,4.87 C79.0476199,4.87 79.1676187,4.90833295 79.2542858,4.985 C79.3409529,5.06166705 79.4042856,5.1466662 79.4442858,5.24 L82.1542858,11.62 C82.2142861,11.7666674 82.2659523,11.9133326 82.3092858,12.06 C82.3526193,12.2066674 82.3909523,12.3566659 82.4242858,12.51 C82.4709527,12.3566659 82.5176189,12.2066674 82.5642858,12.06 C82.6109527,11.9133326 82.6642855,11.7633341 82.7242858,11.61 L85.3542858,5.24 C85.394286,5.1333328 85.4626186,5.04500035 85.5592858,4.975 C85.655953,4.90499965 85.7609519,4.87 85.8742858,4.87 L87.2942858,4.87 L81.6442858,17.99 Z M98.027143,6.67 C97.9738094,6.7433337 97.9204766,6.7999998 97.867143,6.84 C97.8138094,6.8800002 97.7371435,6.9 97.637143,6.9 C97.5371425,6.9 97.4288102,6.85833375 97.312143,6.775 C97.1954758,6.69166625 97.0471439,6.6000005 96.867143,6.5 C96.6871421,6.3999995 96.468811,6.30833375 96.212143,6.225 C95.955475,6.14166625 95.6404782,6.1 95.267143,6.1 C94.7738072,6.1 94.3371449,6.18833245 93.957143,6.365 C93.5771411,6.54166755 93.2588109,6.796665 93.002143,7.13 C92.7454751,7.463335 92.5521437,7.8666643 92.422143,8.34 C92.2921423,8.8133357 92.227143,9.3433304 92.227143,9.93 C92.227143,10.5433364 92.2971423,11.0883309 92.437143,11.565 C92.5771437,12.0416691 92.7738084,12.4416651 93.027143,12.765 C93.2804776,13.0883349 93.5888078,13.3349991 93.952143,13.505 C94.3154781,13.6750008 94.7238074,13.76 95.177143,13.76 C95.6104785,13.76 95.9671416,13.7083339 96.247143,13.605 C96.5271444,13.5016661 96.7604754,13.3866673 96.947143,13.26 C97.1338106,13.1333327 97.2871424,13.0183339 97.407143,12.915 C97.5271436,12.8116661 97.6471424,12.76 97.767143,12.76 C97.9204771,12.76 98.0338093,12.8166661 98.107143,12.93 L98.607143,13.58 C98.1671408,14.1200027 97.6171463,14.5149987 96.957143,14.765 C96.2971397,15.0150012 95.60048,15.14 94.867143,15.14 C94.2338065,15.14 93.645479,15.0233345 93.102143,14.79 C92.5588069,14.5566655 92.087145,14.2183356 91.687143,13.775 C91.287141,13.3316645 90.9721442,12.7866699 90.742143,12.14 C90.5121419,11.4933301 90.397143,10.7566708 90.397143,9.93 C90.397143,9.1766629 90.5021419,8.4800032 90.712143,7.84 C90.9221441,7.1999968 91.2288076,6.64833565 91.632143,6.185 C92.0354783,5.72166435 92.5338067,5.3600013 93.127143,5.1 C93.7204793,4.8399987 94.4004725,4.71 95.167143,4.71 C95.8738132,4.71 96.5004736,4.82499885 97.047143,5.055 C97.5938124,5.28500115 98.0771409,5.6099979 98.497143,6.03 L98.027143,6.67 Z M101.608572,0.27 L101.608572,15 L99.8285716,15 L99.8285716,0.27 L101.608572,0.27 Z M108.02,4.71 C108.760004,4.71 109.428331,4.8333321 110.025,5.08 C110.62167,5.3266679 111.128331,5.6766644 111.545,6.13 C111.961669,6.5833356 112.281666,7.13166345 112.505,7.775 C112.728335,8.41833655 112.84,9.1366627 112.84,9.93 C112.84,10.730004 112.728335,11.4499968 112.505,12.09 C112.281666,12.7300032 111.961669,13.2766644 111.545,13.73 C111.128331,14.1833356 110.62167,14.5316655 110.025,14.775 C109.428331,15.0183345 108.760004,15.14 108.02,15.14 C107.279996,15.14 106.61167,15.0183345 106.015,14.775 C105.418331,14.5316655 104.910002,14.1833356 104.49,13.73 C104.069998,13.2766644 103.746668,12.7300032 103.52,12.09 C103.293332,11.4499968 103.18,10.730004 103.18,9.93 C103.18,9.1366627 103.293332,8.41833655 103.52,7.775 C103.746668,7.13166345 104.069998,6.5833356 104.49,6.13 C104.910002,5.6766644 105.418331,5.3266679 106.015,5.08 C106.61167,4.8333321 107.279996,4.71 108.02,4.71 Z M108.02,13.75 C109.020005,13.75 109.766664,13.4150034 110.26,12.745 C110.753336,12.0749966 111,11.140006 111,9.94 C111,8.7333273 110.753336,7.7933367 110.26,7.12 C109.766664,6.4466633 109.020005,6.11 108.02,6.11 C107.513331,6.11 107.073335,6.1966658 106.7,6.37 C106.326665,6.5433342 106.015001,6.7933317 105.765,7.12 C105.514999,7.4466683 105.328334,7.84833095 105.205,8.325 C105.081666,8.80166905 105.02,9.339997 105.02,9.94 C105.02,10.540003 105.081666,11.0766643 105.205,11.55 C105.328334,12.0233357 105.514999,12.4216651 105.765,12.745 C106.015001,13.068335 106.326665,13.3166658 106.7,13.49 C107.073335,13.6633342 107.513331,13.75 108.02,13.75 Z M115.751429,4.87 L115.751429,11.33 C115.751429,12.0966705 115.928094,12.6899979 116.281429,13.11 C116.634764,13.5300021 117.168092,13.74 117.881429,13.74 C118.401431,13.74 118.891427,13.6166679 119.351429,13.37 C119.811431,13.1233321 120.23476,12.7800022 120.621429,12.34 L120.621429,4.87 L122.401429,4.87 L122.401429,15 L121.341429,15 C121.088094,15 120.928096,14.8766679 120.861429,14.63 L120.721429,13.54 C120.281427,14.0266691 119.788098,14.4183318 119.241429,14.715 C118.694759,15.0116681 118.068099,15.16 117.361429,15.16 C116.808093,15.16 116.319764,15.0683343 115.896429,14.885 C115.473093,14.7016657 115.118097,14.443335 114.831429,14.11 C114.544761,13.776665 114.329763,13.3733357 114.186429,12.9 C114.043095,12.4266643 113.971429,11.9033362 113.971429,11.33 L113.971429,4.87 L115.751429,4.87 Z M131.632857,15 C131.379523,15 131.219524,14.8766679 131.152857,14.63 L130.992857,13.4 C130.559522,13.9266693 130.064527,14.3483317 129.507857,14.665 C128.951188,14.9816682 128.312861,15.14 127.592857,15.14 C127.012855,15.14 126.486193,15.0283344 126.012857,14.805 C125.539522,14.5816655 125.136192,14.2533355 124.802857,13.82 C124.469522,13.3866645 124.212858,12.8466699 124.032857,12.2 C123.852856,11.5533301 123.762857,10.8100042 123.762857,9.97 C123.762857,9.2233296 123.862856,8.52833655 124.062857,7.885 C124.262858,7.24166345 124.551189,6.6833357 124.927857,6.21 C125.304526,5.7366643 125.762855,5.36500135 126.302857,5.095 C126.84286,4.82499865 127.456187,4.69 128.142857,4.69 C128.76286,4.69 129.292855,4.79499895 129.732857,5.005 C130.17286,5.21500105 130.566189,5.5099981 130.912857,5.89 L130.912857,0.27 L132.692857,0.27 L132.692857,15 L131.632857,15 Z M128.182857,13.7 C128.76286,13.7 129.271189,13.566668 129.707857,13.3 C130.144526,13.033332 130.546189,12.6566691 130.912857,12.17 L130.912857,7.27 C130.586189,6.8299978 130.227859,6.52166755 129.837857,6.345 C129.447855,6.16833245 129.016193,6.08 128.542857,6.08 C127.596186,6.08 126.869527,6.4166633 126.362857,7.09 C125.856188,7.7633367 125.602857,8.7233271 125.602857,9.97 C125.602857,10.6300033 125.659523,11.1949977 125.772857,11.665 C125.886191,12.1350023 126.052856,12.5216651 126.272857,12.825 C126.492859,13.1283349 126.762856,13.3499993 127.082857,13.49 C127.402859,13.6300007 127.769522,13.7 128.182857,13.7 Z" id="cozy-cloud-copy"></path>
            <path d="M50.912,29.688 L50.912,21.516 C50.912,21.323999 51.0439987,21.228 51.308,21.228 C51.5720013,21.228 51.704,21.323999 51.704,21.516 L51.704,29.268 L55.124,29.268 C55.3000009,29.268 55.388,29.3879988 55.388,29.628 C55.388,29.8760012 55.3000009,30 55.124,30 L51.272,30 C51.1759995,30 51.0920004,29.9720003 51.02,29.916 C50.9479996,29.8599997 50.912,29.7840005 50.912,29.688 Z M56.168,29.688 L56.168,21.528 C56.168,21.4319995 56.2039996,21.3580003 56.276,21.306 C56.3480003,21.2539997 56.4319995,21.228 56.528,21.228 L60.8,21.228 C61.000001,21.228 61.1,21.3439988 61.1,21.576 C61.1,21.6800005 61.0740002,21.7699996 61.022,21.846 C60.9699997,21.9220004 60.8960005,21.96 60.8,21.96 L56.96,21.96 L56.96,25.26 L58.844,25.26 C58.9400005,25.26 59.0139997,25.2939997 59.066,25.362 C59.1180002,25.4300003 59.144,25.5159995 59.144,25.62 C59.144,25.8360011 59.044001,25.944 58.844,25.944 L56.96,25.944 L56.96,29.268 L60.8,29.268 C60.8880004,29.268 60.9599997,29.3039996 61.016,29.376 C61.0720003,29.4480004 61.1,29.5359995 61.1,29.64 C61.1,29.8800012 61.000001,30 60.8,30 L56.528,30 C56.4319995,30 56.3480003,29.9720003 56.276,29.916 C56.2039996,29.8599997 56.168,29.7840005 56.168,29.688 Z M64.064,29.7 L64.064,21.528 C64.064,21.4319995 64.0999996,21.3580003 64.172,21.306 C64.2440003,21.2539997 64.3279995,21.228 64.424,21.228 L66.392,21.228 C66.7600018,21.228 67.0799986,21.2559997 67.352,21.312 C67.6240013,21.3680003 67.8779988,21.4679993 68.114,21.612 C68.3500011,21.7560007 68.5299993,21.9659986 68.654,22.242 C68.7780006,22.5180014 68.84,22.859998 68.84,23.268 C68.84,23.7640025 68.7480009,24.1839983 68.564,24.528 C68.379999,24.8720017 68.1320015,25.1119993 67.82,25.248 C68.220002,25.4080008 68.5259989,25.6479984 68.738,25.968 C68.950001,26.2880016 69.056,26.7359971 69.056,27.312 L69.056,27.528 C69.056,28.3920043 68.8400021,29.019998 68.408,29.412 C67.9759978,29.804002 67.4000036,30 66.68,30 L64.424,30 C64.3119994,30 64.2240003,29.9700003 64.16,29.91 C64.0959996,29.8499997 64.064,29.7800004 64.064,29.7 Z M64.844,29.268 L66.584,29.268 C67.7040056,29.268 68.264,28.6760059 68.264,27.492 L68.264,27.288 C68.264,26.1519943 67.7040056,25.584 66.584,25.584 L64.844,25.584 L64.844,29.268 Z M64.844,24.9 L66.416,24.9 C66.9840028,24.9 67.3979987,24.7820012 67.658,24.546 C67.9180013,24.3099988 68.048,23.9120028 68.048,23.352 C68.048,22.8319974 67.9040014,22.470001 67.616,22.266 C67.3279985,22.061999 66.9120027,21.96 66.368,21.96 L64.844,21.96 L64.844,24.9 Z M70.22,29.688 L70.22,21.516 C70.22,21.323999 70.3519986,21.228 70.616,21.228 C70.8800013,21.228 71.012,21.323999 71.012,21.516 L71.012,29.268 L74.432,29.268 C74.6080008,29.268 74.696,29.3879988 74.696,29.628 C74.696,29.8760012 74.6080008,30 74.432,30 L70.58,30 C70.4839995,30 70.4000003,29.9720003 70.328,29.916 C70.2559996,29.8599997 70.22,29.7840005 70.22,29.688 Z M75.1879999,27.504 L75.1879999,23.784 C75.1879999,22.9039956 75.4139977,22.2580021 75.8659999,21.846 C76.3180022,21.4339979 76.9239961,21.228 77.6839999,21.228 C78.4440037,21.228 79.0499977,21.4339979 79.5019999,21.846 C79.9540022,22.2580021 80.1799999,22.9039956 80.1799999,23.784 L80.1799999,27.504 C80.1799999,28.3920044 79.9540022,29.0419979 79.5019999,29.454 C79.0499977,29.8660021 78.4440037,30.072 77.6839999,30.072 C76.9239961,30.072 76.3180022,29.8660021 75.8659999,29.454 C75.4139977,29.0419979 75.1879999,28.3920044 75.1879999,27.504 Z M75.9799999,27.504 C75.9799999,28.7280061 76.5479943,29.34 77.6839999,29.34 C78.8200056,29.34 79.3879999,28.7280061 79.3879999,27.504 L79.3879999,23.784 C79.3879999,22.5679939 78.8200056,21.96 77.6839999,21.96 C76.5479943,21.96 75.9799999,22.5679939 75.9799999,23.784 L75.9799999,27.504 Z M81.5119999,27.504 L81.5119999,23.784 C81.5119999,22.9039956 81.7379977,22.2580021 82.1899999,21.846 C82.6420022,21.4339979 83.2439962,21.228 83.9959999,21.228 C84.7560037,21.228 85.3639976,21.4219981 85.8199999,21.81 C86.2760022,22.1980019 86.5039999,22.695997 86.5039999,23.304 C86.5039999,23.5760014 86.3720012,23.712 86.1079999,23.712 C85.8519986,23.712 85.72,23.612001 85.7119999,23.412 C85.5999994,22.4439952 85.032005,21.96 84.0079999,21.96 C82.8719942,21.96 82.3039999,22.5679939 82.3039999,23.784 L82.3039999,27.504 C82.3039999,28.1200031 82.4519984,28.5799985 82.7479999,28.884 C83.0440014,29.1880015 83.4639972,29.34 84.0079999,29.34 C84.5520026,29.34 84.9719984,29.1880015 85.2679999,28.884 C85.5640014,28.5799985 85.7119999,28.1200031 85.7119999,27.504 L85.7119999,26.076 L84.1039999,26.076 C84.0159995,26.076 83.9460002,26.0420003 83.8939999,25.974 C83.8419997,25.9059997 83.8159999,25.8240005 83.8159999,25.728 C83.8159999,25.6399996 83.8419997,25.5620003 83.8939999,25.494 C83.9460002,25.4259997 84.0159995,25.392 84.1039999,25.392 L86.2159999,25.392 C86.4080009,25.392 86.5039999,25.495999 86.5039999,25.704 L86.5039999,27.504 C86.5039999,28.3920044 86.2780022,29.0419979 85.8259999,29.454 C85.3739977,29.8660021 84.7680037,30.072 84.0079999,30.072 C83.2479961,30.072 82.6420022,29.8660021 82.1899999,29.454 C81.7379977,29.0419979 81.5119999,28.3920044 81.5119999,27.504 Z" id="Le-blog-Copy"></path>
        </g>
    </g>
</svg>